<?xml version="1.0" encoding="UTF-8" standalone="no"?>
<svg
   xmlns:dc="http://purl.org/dc/elements/1.1/"
   xmlns:cc="http://creativecommons.org/ns#"
   xmlns:rdf="http://www.w3.org/1999/02/22-rdf-syntax-ns#"
   xmlns:svg="http://www.w3.org/2000/svg"
   xmlns="http://www.w3.org/2000/svg"
   xmlns:sodipodi="http://sodipodi.sourceforge.net/DTD/sodipodi-0.dtd"
   xmlns:inkscape="http://www.inkscape.org/namespaces/inkscape"
   width="744.09448"
   height="1052.3622"
   version="1.1"
   viewBox="0 0 210 296.99999"
   id="svg3071"
   inkscape:version="0.48.3.1 r9886"
   sodipodi:docname="Modular Synth PSU ohne Beschriftung.svg">
  <metadata
     id="metadata3115">
    <rdf:RDF>
      <cc:Work
         rdf:about="">
        <dc:format>image/svg+xml</dc:format>
        <dc:type
           rdf:resource="http://purl.org/dc/dcmitype/StillImage" />
      </cc:Work>
    </rdf:RDF>
  </metadata>
  <defs
     id="defs3113" />
  <sodipodi:namedview
     pagecolor="#ffffff"
     bordercolor="#666666"
     borderopacity="1"
     objecttolerance="10"
     gridtolerance="10"
     guidetolerance="10"
     inkscape:pageopacity="0"
     inkscape:pageshadow="2"
     inkscape:window-width="796"
     inkscape:window-height="861"
     id="namedview3111"
     showgrid="false"
     inkscape:zoom="0.29968254"
     inkscape:cx="286.875"
     inkscape:cy="790.86749"
     inkscape:window-x="800"
     inkscape:window-y="18"
     inkscape:window-maximized="0"
     inkscape:current-layer="svg3071" />
  <desc
     id="desc3073">Diese Zeichnung wurde mit dem Frontplatten Desinger durch den Export der Datei 'Modular Synth PSU ohne Beschriftung.fpd' erzeugt.</desc>
  <path
     inkscape:connector-curvature="0"
     style="fill:#ffffff;fill-rule:evenodd;stroke:#000000;stroke-width:0.1;stroke-linecap:round;stroke-linejoin:round;stroke-opacity:1"
     id="path3077"
     d="m 185.06704,40.318916 -161.924829,0 0,0 0,222.250244 0,0 161.924829,0 0,0 0,-222.250244 0,0 z" />
  <circle
     sodipodi:ry="26"
     sodipodi:rx="26"
     sodipodi:cy="165"
     sodipodi:cx="42"
     style="fill:#ffffff;fill-rule:evenodd;stroke:#000000;stroke-width:0.1;stroke-linecap:round;stroke-linejoin:round;stroke-opacity:1"
     d="m 68,165 c 0,14.3594 -11.640597,26 -26,26 -14.359403,0 -26,-11.6406 -26,-26 0,-14.3594 11.640597,-26 26,-26 14.359403,0 26,11.6406 26,26 z"
     id="circle3079"
     r="26"
     cy="165"
     cx="42"
     transform="matrix(1,0,0,-1,23.142211,262.56916)" />
  <circle
     sodipodi:ry="26"
     sodipodi:rx="26"
     sodipodi:cy="99"
     sodipodi:cx="42"
     style="fill:#ffffff;fill-rule:evenodd;stroke:#000000;stroke-width:0.1;stroke-linecap:round;stroke-linejoin:round;stroke-opacity:1"
     d="M 68,99 C 68,113.3594 56.359403,125 42,125 27.640597,125 16,113.3594 16,99 16,84.640597 27.640597,73 42,73 56.359403,73 68,84.640597 68,99 z"
     id="circle3081"
     r="26"
     cy="99"
     cx="42"
     transform="matrix(1,0,0,-1,23.142211,262.56916)" />
  <circle
     sodipodi:ry="26"
     sodipodi:rx="26"
     sodipodi:cy="99"
     sodipodi:cx="119"
     style="fill:#ffffff;fill-rule:evenodd;stroke:#000000;stroke-width:0.1;stroke-linecap:round;stroke-linejoin:round;stroke-opacity:1"
     d="m 145,99 c 0,14.3594 -11.6406,26 -26,26 -14.3594,0 -26,-11.6406 -26,-26 0,-14.359403 11.6406,-26 26,-26 14.3594,0 26,11.640597 26,26 z"
     id="circle3083"
     r="26"
     cy="99"
     cx="119"
     transform="matrix(1,0,0,-1,23.142211,262.56916)" />
  <circle
     sodipodi:ry="26"
     sodipodi:rx="26"
     sodipodi:cy="165"
     sodipodi:cx="119"
     style="fill:#ffffff;fill-rule:evenodd;stroke:#000000;stroke-width:0.1;stroke-linecap:round;stroke-linejoin:round;stroke-opacity:1"
     d="m 145,165 c 0,14.3594 -11.6406,26 -26,26 -14.3594,0 -26,-11.6406 -26,-26 0,-14.3594 11.6406,-26 26,-26 14.3594,0 26,11.6406 26,26 z"
     id="circle3085"
     r="26"
     cy="165"
     cx="119"
     transform="matrix(1,0,0,-1,23.142211,262.56916)" />
  <circle
     sodipodi:ry="6.25"
     sodipodi:rx="6.25"
     sodipodi:cy="35.909"
     sodipodi:cx="17.243"
     style="fill:#ffffff;fill-rule:evenodd;stroke:#000000;stroke-width:0.1;stroke-linecap:round;stroke-linejoin:round;stroke-opacity:1"
     d="m 23.493,35.909 c 0,3.45178 -2.79822,6.25 -6.25,6.25 -3.45178,0 -6.25,-2.79822 -6.25,-6.25 0,-3.451779 2.79822,-6.25 6.25,-6.25 3.45178,0 6.25,2.798221 6.25,6.25 z"
     id="circle3087"
     r="6.25"
     cy="35.909"
     cx="17.243"
     transform="matrix(1,0,0,-1,23.142211,262.56916)" />
  <circle
     sodipodi:ry="2"
     sodipodi:rx="2"
     sodipodi:cy="215.314"
     sodipodi:cx="25.752001"
     style="fill:#ffffff;fill-rule:evenodd;stroke:#000000;stroke-width:0.1;stroke-linecap:round;stroke-linejoin:round;stroke-opacity:1"
     d="m 27.752001,215.314 c 0,1.10456 -0.895431,2 -2,2 -1.10457,0 -2,-0.89544 -2,-2 0,-1.10457 0.89543,-2 2,-2 1.104569,0 2,0.89543 2,2 z"
     id="circle3097"
     r="2"
     cy="215.314"
     cx="25.752001"
     transform="matrix(1,0,0,-1,23.142211,262.56916)" />
  <circle
     sodipodi:ry="2"
     sodipodi:rx="2"
     sodipodi:cy="214.438"
     sodipodi:cx="135.59399"
     style="fill:#ffffff;fill-rule:evenodd;stroke:#000000;stroke-width:0.1;stroke-linecap:round;stroke-linejoin:round;stroke-opacity:1"
     d="m 137.59399,214.438 c 0,1.10457 -0.89543,2 -2,2 -1.10457,0 -2,-0.89543 -2,-2 0,-1.10457 0.89543,-2 2,-2 1.10457,0 2,0.89543 2,2 z"
     id="circle3099"
     r="2"
     cy="214.438"
     cx="135.59399"
     transform="matrix(1,0,0,-1,23.142211,262.56916)" />
  <circle
     sodipodi:ry="2"
     sodipodi:rx="2"
     sodipodi:cy="7.165"
     sodipodi:cx="24.68"
     style="fill:#ffffff;fill-rule:evenodd;stroke:#000000;stroke-width:0.1;stroke-linecap:round;stroke-linejoin:round;stroke-opacity:1"
     d="m 26.68,7.165 c 0,1.1045695 -0.89543,2 -2,2 -1.104569,0 -2,-0.8954305 -2,-2 0,-1.1045695 0.895431,-2 2,-2 1.10457,0 2,0.8954305 2,2 z"
     id="circle3101"
     r="2"
     cy="7.165"
     cx="24.68"
     transform="matrix(1,0,0,-1,23.142211,262.56916)" />
  <circle
     sodipodi:ry="2"
     sodipodi:rx="2"
     sodipodi:cy="6.1040001"
     sodipodi:cx="136.136"
     style="fill:#ffffff;fill-rule:evenodd;stroke:#000000;stroke-width:0.1;stroke-linecap:round;stroke-linejoin:round;stroke-opacity:1"
     d="m 138.136,6.1040001 c 0,1.1045695 -0.89543,2 -2,2 -1.10457,0 -2,-0.8954305 -2,-2 0,-1.1045695 0.89543,-2 2,-2 1.10457,0 2,0.8954305 2,2 z"
     id="circle3103"
     r="2"
     cy="6.1040001"
     cx="136.136"
     transform="matrix(1,0,0,-1,23.142211,262.56916)" />
  <circle
     sodipodi:ry="4"
     sodipodi:rx="4"
     sodipodi:cy="48.5"
     sodipodi:cx="130.633"
     style="fill:#ffffff;fill-rule:evenodd;stroke:#000000;stroke-width:0.1;stroke-linecap:round;stroke-linejoin:round;stroke-opacity:1"
     d="m 134.633,48.5 c 0,2.209139 -1.79087,4 -4,4 -2.20914,0 -4,-1.790861 -4,-4 0,-2.209139 1.79086,-4 4,-4 2.20913,0 4,1.790861 4,4 z"
     id="circle3105"
     r="4"
     cy="48.5"
     cx="130.633"
     transform="matrix(1,0,0,-1,23.142211,262.56916)" />
  <circle
     sodipodi:ry="4"
     sodipodi:rx="4"
     sodipodi:cy="23"
     sodipodi:cx="130.50301"
     style="fill:#ffffff;fill-rule:evenodd;stroke:#000000;stroke-width:0.1;stroke-linecap:round;stroke-linejoin:round;stroke-opacity:1"
     d="m 134.50301,23 c 0,2.209139 -1.79087,4 -4,4 -2.20914,0 -4,-1.790861 -4,-4 0,-2.209139 1.79086,-4 4,-4 2.20913,0 4,1.790861 4,4 z"
     id="circle3109"
     r="4"
     cy="23"
     cx="130.50301"
     transform="matrix(1,0,0,-1,23.142211,262.56916)" />
</svg>
